<svg width="234.51874999999998px" height="122px" xmlns="http://www.w3.org/2000/svg" viewBox="132.74062500000002 14 234.51874999999998 122" style="background: rgba(0, 0, 0, 0);" preserveAspectRatio="xMidYMid"><defs><filter id="editing-extrusion" x="-100%" y="-100%" width="300%" height="300%"><feFlood result="color1" flood-color="#444"></feFlood><feConvolveMatrix order="8,8" divisor="1" kernelMatrix="1 0 0 0 0 0 0 0 0 1 0 0 0 0 0 0 0 0 1 0 0 0 0 0 0 0 0 1 0 0 0 0 0 0 0 0 1 0 0 0 0 0 0 0 0 1 0 0 0 0 0 0 0 0 1 0 0 0 0 0 0 0 0 1" in="SourceAlpha" result="extrude"></feConvolveMatrix><feComposite in="color1" in2="extrude" result="comp-extrude" operator="in"></feComposite><feOffset dx="4" dy="4" in="comp-extrude" result="offset-extrude"></feOffset><feMerge><feMergeNode in="offset-extrude"></feMergeNode><feMergeNode in="SourceGraphic"></feMergeNode></feMerge></filter></defs><g filter="url(#editing-extrusion)"><g transform="translate(171.63501462340355, 102.5200023651123)"><path d="M24.96-4.80L24.96-4.80L24.96-4.80Q24.96-9.28 26.75-18.24L26.75-18.24L17.28-18.24L13.76 0L0.38 0L8.51-42.24L22.02-42.24L18.30-23.36L27.78-23.36L31.30-42.24L44.80-42.24L44.80-42.24Q43.90-37.50 42.75-32.19L42.75-32.19L40.58-21.76L40.58-21.76Q38.14-9.60 38.14-4.29L38.14-4.29L38.14-4.29Q38.14-2.11 38.85-0.90L38.85-0.90L38.85-0.90Q35.65 1.28 31.90 1.28L31.90 1.28L31.90 1.28Q28.16 1.28 26.56-0.51L26.56-0.51L26.56-0.51Q24.96-2.30 24.96-4.80ZM72.26-10.82L72.26-10.82L72.26-10.82Q73.86-9.73 73.86-7.33L73.86-7.33L73.86-7.33Q73.86-4.93 72.64-3.39L72.64-3.39L72.64-3.39Q71.42-1.86 69.44-0.83L69.44-0.83L69.44-0.83Q65.34 1.28 60.93 1.28L60.93 1.28L60.93 1.28Q56.51 1.28 53.92 0.32L53.92 0.32L53.92 0.32Q51.33-0.64 49.60-2.43L49.60-2.43L49.60-2.43Q46.21-5.82 46.21-12.03L46.21-12.03L46.21-12.03Q46.21-21.70 51.46-27.58L51.46-27.58L51.46-27.58Q57.09-33.92 66.88-33.92L66.88-33.92L66.88-33.92Q72.96-33.92 75.97-31.36L75.97-31.36L75.97-31.36Q78.21-29.44 78.21-26.30L78.21-26.30L78.21-26.30Q78.21-15.04 58.75-15.04L58.75-15.04L58.75-15.04Q58.50-13.38 58.50-11.97L58.50-11.97L58.50-11.97Q58.50-9.02 59.81-7.90L59.81-7.90L59.81-7.90Q61.12-6.78 63.55-6.78L63.55-6.78L63.55-6.78Q65.98-6.78 68.58-7.90L68.58-7.90L68.58-7.90Q71.17-9.02 72.26-10.82ZM59.20-17.79L59.20-17.79L59.20-17.79Q63.74-17.79 66.37-20.61L66.37-20.61L66.37-20.61Q68.99-23.30 68.99-27.58L68.99-27.58L68.99-27.58Q68.99-29.06 68.45-29.86L68.45-29.86L68.45-29.86Q67.90-30.66 66.82-30.66L66.82-30.66L66.82-30.66Q65.73-30.66 64.80-30.24L64.80-30.24L64.80-30.24Q63.87-29.82 62.91-28.42L62.91-28.42L62.91-28.42Q60.54-25.22 59.20-17.79ZM107.46 1.28L107.46 1.28L107.46 1.28Q99.71 1.28 99.71-4.74L99.71-4.74L99.71-4.74Q99.78-6.40 100.29-9.22L100.29-9.22L101.44-15.10L101.44-15.10Q103.17-23.42 103.17-25.28L103.17-25.28L103.17-25.28Q103.17-28.99 100.99-28.99L100.99-28.99L100.99-28.99Q97.34-28.99 95.42-19.46L95.42-19.46L91.65 0L78.78 1.28L85.44-32.70L95.94-33.92L94.91-27.65L94.91-27.65Q97.92-33.92 107.14-33.92L107.14-33.92L107.14-33.92Q111.62-33.92 113.50-32.03L113.50-32.03L113.50-32.03Q115.39-30.14 115.39-25.92L115.39-25.92L115.39-25.92Q115.39-21.95 113.34-12.67L113.34-12.67L113.34-12.67Q112.38-8.51 112.38-6.94L112.38-6.94L112.38-6.94Q112.38-5.38 113.25-4.48L113.25-4.48L113.25-4.48Q114.11-3.58 115.39-3.46L115.39-3.46L115.39-3.46Q114.75-1.28 112.54 0L112.54 0L112.54 0Q110.34 1.28 107.46 1.28ZM125.06-26.75L125.06-26.75L125.06-26.75Q127.23-29.82 130.53-31.87L130.53-31.87L130.53-31.87Q133.82-33.92 137.86-33.92L137.86-33.92L137.86-33.92Q141.89-33.92 143.81-32.64L143.81-32.64L156.35-33.92L152-9.34L152-9.34Q149.76 3.20 145.02 8.13L145.02 8.13L145.02 8.13Q140.48 12.80 131.65 12.80L131.65 12.80L131.65 12.80Q124.93 12.80 121.09 10.69L121.09 10.69L121.09 10.69Q117.25 8.58 117.25 5.06L117.25 5.06L117.25 5.06Q117.25 2.43 119.23 0.93L119.23 0.93L119.23 0.93Q121.22-0.58 124.29-0.58L124.29-0.58L124.29-0.58Q126.98-0.58 129.02 0.64L129.02 0.64L129.02 0.64Q130.24 1.28 130.82 2.18L130.82 2.18L130.82 2.18Q129.34 3.46 129.34 5.57L129.34 5.57L129.34 5.57Q129.34 8.32 131.90 8.32L131.90 8.32L131.90 8.32Q136.19 8.32 138.62-1.79L138.62-1.79L138.62-1.79Q139.33-4.54 139.90-7.30L139.90-7.30L139.90-7.30Q137.02-3.78 130.50-3.78L130.50-3.78L130.50-3.78Q125.95-3.78 123.33-5.95L123.33-5.95L123.33-5.95Q120.70-8.13 120.70-13.25L120.70-13.25L120.70-13.25Q120.70-16.45 121.79-20.06L121.79-20.06L121.79-20.06Q122.88-23.68 125.06-26.75ZM133.38-13.06L133.38-13.06L133.38-13.06Q133.38-8.70 135.62-8.70L135.62-8.70L135.62-8.70Q137.15-8.70 138.62-10.37L138.62-10.37L138.62-10.37Q139.78-11.71 140.22-13.70L140.22-13.70L143.49-30.14L143.49-30.14Q143.17-30.21 142.85-30.34L142.85-30.34L142.85-30.34Q142.21-30.59 141.38-30.59L141.38-30.59L141.38-30.59Q137.47-30.59 135.17-24.19L135.17-24.19L135.17-24.19Q133.38-19.20 133.38-13.06Z" fill="#ccc"></path></g></g>
<style>
text {
  font-size: 64px;
  font-family: Arial Black;
  dominant-baseline: central;
  text-anchor: middle;
}
</style>
</svg>